<svg width="8" height="16" viewBox="0 0 8 16" fill="none" xmlns="http://www.w3.org/2000/svg">
<path d="M7.69874 0.00332903L5.77991 0C3.62416 0 2.23102 1.5455 2.23102 3.93758V5.75307H0.301719C0.135004 5.75307 0 5.89921 0 6.07948V8.70992C0 8.89018 0.135158 9.03616 0.301719 9.03616H2.23102V15.6736C2.23102 15.8539 2.36603 15.9998 2.53274 15.9998H5.04993C5.21665 15.9998 5.35165 15.8537 5.35165 15.6736V9.03616H7.60746C7.77417 9.03616 7.90918 8.89018 7.90918 8.70992L7.9101 6.07948C7.9101 5.99293 7.87824 5.91003 7.82174 5.84878C7.76525 5.78752 7.68828 5.75307 7.60823 5.75307H5.35165V4.21406C5.35165 3.47435 5.51467 3.09883 6.40582 3.09883L7.69844 3.09833C7.865 3.09833 8 2.95219 8 2.77209V0.329574C8 0.14964 7.86515 0.00366194 7.69874 0.00332903Z" fill="#7B7B7B"/>
</svg>
