<svg width="24" height="24" viewBox="0 0 24 24" fill="none" xmlns="http://www.w3.org/2000/svg">
<rect width="24" height="24" fill="#475993"/>
<path d="M15.6987 4.00333L13.7799 4C11.6242 4 10.231 5.5455 10.231 7.93758V9.75307H8.30172C8.135 9.75307 8 9.89921 8 10.0795V12.7099C8 12.8902 8.13516 13.0362 8.30172 13.0362H10.231V19.6736C10.231 19.8539 10.366 19.9998 10.5327 19.9998H13.0499C13.2166 19.9998 13.3517 19.8537 13.3517 19.6736V13.0362H15.6075C15.7742 13.0362 15.9092 12.8902 15.9092 12.7099L15.9101 10.0795C15.9101 9.99293 15.8782 9.91003 15.8217 9.84878C15.7652 9.78752 15.6883 9.75307 15.6082 9.75307H13.3517V8.21406C13.3517 7.47435 13.5147 7.09883 14.4058 7.09883L15.6984 7.09833C15.865 7.09833 16 6.95219 16 6.77209V4.32957C16 4.14964 15.8652 4.00366 15.6987 4.00333Z" fill="white"/>
</svg>
