<svg width="16" height="16" viewBox="0 0 16 16" fill="none" xmlns="http://www.w3.org/2000/svg">
<path d="M11.5844 0H4.4153C1.98071 0 0 1.9808 0 4.4154V11.5845C0 14.0192 1.98071 15.9999 4.4153 15.9999H11.5844C14.0192 15.9999 15.9999 14.0191 15.9999 11.5845V4.4154C16 1.9808 14.0192 0 11.5844 0ZM14.5804 11.5845C14.5804 13.2364 13.2364 14.5803 11.5845 14.5803H4.4153C2.76347 14.5804 1.41959 13.2364 1.41959 11.5845V4.4154C1.41959 2.76356 2.76347 1.41959 4.4153 1.41959H11.5844C13.2363 1.41959 14.5803 2.76356 14.5803 4.4154V11.5845H14.5804Z" fill="#7B7B7B"/>
<path d="M7.99997 3.87738C5.72664 3.87738 3.8772 5.72682 3.8772 8.00015C3.8772 10.2734 5.72664 12.1227 7.99997 12.1227C10.2733 12.1227 12.1227 10.2734 12.1227 8.00015C12.1227 5.72682 10.2733 3.87738 7.99997 3.87738ZM7.99997 10.703C6.50949 10.703 5.29679 9.49053 5.29679 8.00006C5.29679 6.50949 6.5094 5.29687 7.99997 5.29687C9.49053 5.29687 10.7031 6.50949 10.7031 8.00006C10.7031 9.49053 9.49044 10.703 7.99997 10.703Z" fill="#7B7B7B"/>
<path d="M12.2955 2.67365C12.022 2.67365 11.7534 2.78437 11.5602 2.97838C11.3661 3.17145 11.2545 3.44022 11.2545 3.71468C11.2545 3.98828 11.3662 4.25696 11.5602 4.45097C11.7533 4.64403 12.022 4.75571 12.2955 4.75571C12.57 4.75571 12.8378 4.64403 13.0318 4.45097C13.2259 4.25696 13.3366 3.98818 13.3366 3.71468C13.3366 3.44022 13.2259 3.17145 13.0318 2.97838C12.8388 2.78437 12.57 2.67365 12.2955 2.67365Z" fill="#7B7B7B"/>
</svg>
