<svg width="24" height="24" viewBox="0 0 24 24" fill="none" xmlns="http://www.w3.org/2000/svg">
<rect x="24" y="9.53674e-07" width="24" height="24" transform="rotate(90 24 9.53674e-07)" fill="url(#paint0_linear)"/>
<path d="M15.5844 4H8.4153C5.98071 4 4 5.9808 4 8.4154V15.5845C4 18.0192 5.98071 19.9999 8.4153 19.9999H15.5844C18.0192 19.9999 19.9999 18.0191 19.9999 15.5845V8.4154C20 5.9808 18.0192 4 15.5844 4ZM18.5804 15.5845C18.5804 17.2364 17.2364 18.5803 15.5845 18.5803H8.4153C6.76347 18.5804 5.41959 17.2364 5.41959 15.5845V8.4154C5.41959 6.76356 6.76347 5.41959 8.4153 5.41959H15.5844C17.2363 5.41959 18.5803 6.76356 18.5803 8.4154V15.5845H18.5804Z" fill="white"/>
<path d="M12 7.87738C9.72664 7.87738 7.8772 9.72682 7.8772 12.0002C7.8772 14.2734 9.72664 16.1227 12 16.1227C14.2733 16.1227 16.1227 14.2734 16.1227 12.0002C16.1227 9.72682 14.2733 7.87738 12 7.87738ZM12 14.703C10.5095 14.703 9.29679 13.4905 9.29679 12.0001C9.29679 10.5095 10.5094 9.29688 12 9.29688C13.4905 9.29688 14.7031 10.5095 14.7031 12.0001C14.7031 13.4905 13.4904 14.703 12 14.703Z" fill="white"/>
<path d="M16.2955 6.67365C16.022 6.67365 15.7534 6.78437 15.5602 6.97838C15.3661 7.17145 15.2545 7.44022 15.2545 7.71468C15.2545 7.98828 15.3662 8.25696 15.5602 8.45097C15.7533 8.64404 16.022 8.75571 16.2955 8.75571C16.57 8.75571 16.8378 8.64404 17.0318 8.45097C17.2259 8.25696 17.3366 7.98819 17.3366 7.71468C17.3366 7.44022 17.2259 7.17145 17.0318 6.97838C16.8388 6.78437 16.57 6.67365 16.2955 6.67365Z" fill="white"/>
<defs>
<linearGradient id="paint0_linear" x1="20.5" y1="4.5" x2="55" y2="27" gradientUnits="userSpaceOnUse">
<stop stop-color="#8A3AB9"/>
<stop offset="0.0001" stop-color="#4C68D7"/>
<stop offset="0.542725" stop-color="#E4655B"/>
<stop offset="0.798038" stop-color="#E6795E"/>
<stop offset="0.9998" stop-color="#FBAD50"/>
<stop offset="0.9999" stop-color="#C11A76"/>
</linearGradient>
</defs>
</svg>
