<svg width="16" height="16" viewBox="0 0 16 16" fill="none" xmlns="http://www.w3.org/2000/svg">
<path d="M8.002 0H7.998C3.587 0 0 3.588 0 8C0 9.75 0.564 11.372 1.523 12.689L0.526 15.661L3.601 14.678C4.866 15.516 6.375 16 8.002 16C12.413 16 16 12.411 16 8C16 3.589 12.413 0 8.002 0Z" fill="#4CAF50"/>
<path d="M12.6571 11.297C12.4641 11.842 11.6981 12.294 11.0871 12.426C10.6691 12.515 10.1231 12.586 8.28505 11.824C5.93405 10.85 4.42005 8.461 4.30205 8.306C4.18905 8.151 3.35205 7.041 3.35205 5.893C3.35205 4.745 3.93505 4.186 4.17005 3.946C4.36305 3.749 4.68205 3.659 4.98805 3.659C5.08705 3.659 5.17605 3.664 5.25605 3.668C5.49105 3.678 5.60905 3.692 5.76405 4.063C5.95705 4.528 6.42705 5.676 6.48305 5.794C6.54005 5.912 6.59705 6.072 6.51705 6.227C6.44205 6.387 6.37605 6.458 6.25805 6.594C6.14005 6.73 6.02805 6.834 5.91005 6.98C5.80205 7.107 5.68005 7.243 5.81605 7.478C5.95205 7.708 6.42205 8.475 7.11405 9.091C8.00705 9.886 8.73105 10.14 8.99005 10.248C9.18305 10.328 9.41305 10.309 9.55405 10.159C9.73305 9.966 9.95405 9.646 10.1791 9.331C10.3391 9.105 10.5411 9.077 10.7531 9.157C10.9691 9.232 12.1121 9.797 12.3471 9.914C12.5821 10.032 12.7371 10.088 12.7941 10.187C12.85 10.286 12.85 10.751 12.6571 11.297Z" fill="#FAFAFA"/>
</svg>
