<svg width="24" height="24" viewBox="0 0 24 24" fill="none" xmlns="http://www.w3.org/2000/svg">
<rect width="24" height="24" fill="#4CAF50"/>
<path d="M20 11.794C20 16.0985 16.4837 19.5879 12.1454 19.5879C10.7682 19.5879 9.47431 19.2359 8.34862 18.6181L4 20L5.41778 15.8183C4.70258 14.6439 4.29067 13.2665 4.29067 11.794C4.29067 7.48942 7.80729 4 12.1454 4C16.4841 4 20 7.48942 20 11.794ZM12.1454 5.24124C8.50382 5.24124 5.54169 8.1808 5.54169 11.794C5.54169 13.2277 6.00907 14.5556 6.79964 15.6357L5.97458 18.0693L8.51236 17.2628C9.55502 17.9474 10.8041 18.3467 12.1456 18.3467C15.7867 18.3467 18.7493 15.4075 18.7493 11.7943C18.7493 8.18116 15.7868 5.24124 12.1454 5.24124ZM16.1118 13.589C16.0633 13.5095 15.9351 13.4615 15.7428 13.366C15.55 13.2706 14.6032 12.8082 14.4272 12.7447C14.2507 12.6811 14.122 12.6491 13.9938 12.8402C13.8656 13.0315 13.4965 13.4615 13.384 13.589C13.2716 13.7168 13.1595 13.7328 12.9668 13.6372C12.7744 13.5417 12.1541 13.3397 11.4187 12.6891C10.8464 12.1828 10.4599 11.5577 10.3476 11.3662C10.2354 11.1751 10.3358 11.0718 10.432 10.9767C10.5188 10.891 10.6247 10.7536 10.7209 10.6421C10.8174 10.5305 10.8494 10.451 10.9132 10.3234C10.9778 10.1959 10.9456 10.0844 10.8972 9.98862C10.8492 9.89316 10.4638 8.95307 10.3035 8.57049C10.1431 8.18827 9.98293 8.25191 9.8704 8.25191C9.75822 8.25191 9.62969 8.23591 9.50133 8.23591C9.37298 8.23591 9.16427 8.28373 8.98773 8.47484C8.81138 8.66613 8.31413 9.12836 8.31413 10.0683C8.31413 11.0084 9.00373 11.9166 9.10027 12.0439C9.19644 12.1712 10.4318 14.163 12.3892 14.928C14.3467 15.6926 14.3467 15.4375 14.6997 15.4055C15.0524 15.3737 15.8386 14.9435 15.9996 14.4976C16.1596 14.051 16.1596 13.6686 16.1118 13.589Z" fill="white"/>
</svg>
